<svg width="122" height="32" viewBox="0 0 122 32" fill="none" xmlns="http://www.w3.org/2000/svg">
<path fill-rule="evenodd" clip-rule="evenodd" d="M60.3206 10.2503H57.4525C57.0539 10.2503 56.815 10.4108 56.7087 10.8122L54.7633 18.1194L52.5123 10.8122C52.4069 10.4404 52.144 10.2541 51.7764 10.2514L51.7756 10.2503H49.6973L49.6965 10.2514C49.3289 10.2541 49.066 10.4404 48.9606 10.8122L46.7096 18.1194L44.7642 10.8122C44.658 10.4108 44.419 10.2503 44.0205 10.2503H41.1523C40.6743 10.2503 40.4619 10.5447 40.5946 10.9995L44.4192 23.0705C44.5254 23.4451 44.8175 23.6323 45.1894 23.6323H47.7391C48.1108 23.6323 48.4029 23.4451 48.5091 23.0706L50.7364 16.0402L52.9638 23.0706C53.0701 23.4451 53.3622 23.6323 53.7338 23.6323H56.2835C56.6554 23.6323 56.9475 23.4451 57.0538 23.0705L60.8784 10.9995C61.0111 10.5447 60.7986 10.2503 60.3206 10.2503ZM68.0294 20.2366C66.2717 20.2366 64.8468 18.759 64.8468 16.9364C64.8468 15.1137 66.2717 13.6362 68.0294 13.6362C69.787 13.6362 71.2119 15.1137 71.2119 16.9364C71.2119 18.759 69.787 20.2366 68.0294 20.2366ZM74.5293 10.2501H71.8753C71.4507 10.2501 71.2119 10.4905 71.2119 10.9186V11.5141C70.1237 10.4914 68.723 9.8757 67.1945 9.8757C63.7301 9.8757 60.9217 13.0369 60.9217 16.9364C60.9217 20.8358 63.7301 23.997 67.1945 23.997C68.723 23.997 70.1237 23.3813 71.2119 22.3586V22.9542C71.2119 23.3818 71.4507 23.6227 71.8753 23.6227H74.5293C74.9541 23.6227 75.1929 23.3818 75.1929 22.9542V10.9186C75.1929 10.4905 74.9541 10.2501 74.5293 10.2501ZM121.165 15.148V22.9634C121.165 23.3914 120.926 23.6323 120.501 23.6323H117.845C117.42 23.6323 117.181 23.3914 117.181 22.9634V15.4961C117.181 14.1579 116.411 13.5691 115.402 13.5691C114.207 13.5691 113.462 14.238 113.462 15.8174V22.9634C113.462 23.3914 113.223 23.6323 112.799 23.6323H110.143C109.718 23.6323 109.479 23.3914 109.479 22.9634V10.9193C109.479 10.491 109.718 10.2503 110.143 10.2503H112.799C113.223 10.2503 113.462 10.491 113.462 10.9193V11.4725C114.087 10.5425 115.218 9.8757 116.916 9.8757C119.385 9.8757 121.165 11.8024 121.165 15.148ZM104.157 15.4961C103.746 13.973 102.575 13.4351 101.403 13.4351C99.9104 13.4351 98.8767 14.1614 98.4669 15.4961H104.157ZM108.123 16.9412C108.123 17.2893 108.096 17.6105 108.07 17.9318C108.017 18.3597 107.751 18.547 107.352 18.547H98.4831C98.9659 20.1372 100.205 20.7684 101.59 20.7684C102.333 20.7684 103.077 20.5009 103.555 20.0995C103.82 19.8853 104.033 19.7517 104.378 19.7517H106.928C107.406 19.7517 107.671 20.0461 107.458 20.4741C106.423 22.8026 104.245 24.0069 101.536 24.0069C97.1271 24.0069 94.3122 20.9292 94.3122 16.9412C94.3122 12.9535 97.2332 9.8757 101.43 9.8757C105.308 9.8757 108.123 12.9001 108.123 16.9412ZM92.8258 10.0358C93.277 9.95561 93.516 10.25 93.516 10.6783V13.8362C93.516 14.2645 93.3305 14.4787 92.9854 14.4787C91.4974 14.4254 90.0636 15.1746 90.0636 17.3158V22.9631C90.0636 23.3914 89.8246 23.632 89.3994 23.632H86.744C86.3188 23.632 86.0798 23.3914 86.0798 22.9631V10.9189C86.0798 10.491 86.3188 10.25 86.744 10.25H89.3994C89.8246 10.25 90.0636 10.491 90.0636 10.9189V12.3657C90.4597 11.022 91.5063 10.2354 92.8258 10.0362V10.0358ZM83.6642 10.0358C84.1154 9.95561 84.3543 10.25 84.3543 10.6783V13.8362C84.3543 14.2645 84.1688 14.4787 83.8238 14.4787C82.3357 14.4254 80.9018 15.1746 80.9018 17.3158V22.9631C80.9018 23.3914 80.6628 23.632 80.2378 23.632H77.5821C77.1571 23.632 76.918 23.3914 76.918 22.9631V10.9189C76.918 10.491 77.1571 10.25 77.5821 10.25H80.2378C80.6628 10.25 80.9018 10.491 80.9018 10.9189V12.3657C81.2981 11.022 82.3446 10.2354 83.6642 10.0362V10.0358ZM24.8395 20.4731C24.8395 22.2311 23.4253 23.6562 21.6808 23.6562C21.3147 23.6562 21.018 23.3572 21.018 22.9883V9.01172C21.018 8.64284 21.3147 8.34382 21.6808 8.34382H24.1767C24.5428 8.34382 24.8395 8.64284 24.8395 9.01172V20.4731ZM17.8076 23.6562H15.3116C14.9456 23.6562 14.6489 23.3572 14.6489 22.9883V12.8399C14.6489 12.471 14.9456 12.172 15.3116 12.172H17.8076C18.1736 12.172 18.4704 12.471 18.4704 12.8399V22.9883C18.4704 23.3572 18.1736 23.6562 17.8076 23.6562ZM11.4385 23.6562H8.94256C8.5765 23.6562 8.27979 23.3572 8.27979 22.9883V10.9372C8.27979 10.5683 8.5765 10.2693 8.94256 10.2693H11.4385C11.8045 10.2693 12.1012 10.5683 12.1012 10.9372V22.9883C12.1012 23.3572 11.8045 23.6562 11.4385 23.6562ZM21.018 0H12.1013C5.41796 0 0 5.45983 0 12.1948V31.3321C0 31.701 0.296718 32 0.662775 32H21.018C27.7014 32 33.1192 26.5402 33.1192 19.8051V12.1948C33.1192 5.45983 27.7014 0 21.018 0Z" fill="white"/>
</svg>
